<svg width="27" height="26" viewBox="0 0 27 26" fill="none" xmlns="http://www.w3.org/2000/svg">
<path d="M23.166 0C25.1911 0 26.8327 1.64163 26.8327 3.66667V10.666C25.6164 9.04712 23.6801 8 21.4993 8C17.8175 8 14.8327 10.9848 14.8327 14.6667C14.8327 16.1677 15.3288 17.5529 16.166 18.6673V20H3.83268C1.80761 20 0.16601 18.3584 0.16601 16.3333V3.66667C0.16601 1.64163 1.80761 0 3.83268 0H23.166ZM20.4993 5.33333H6.49934C5.94708 5.33333 5.49934 5.78105 5.49934 6.33333C5.49934 6.88561 5.94708 7.33333 6.49934 7.33333H20.4993C21.0516 7.33333 21.4993 6.88561 21.4993 6.33333C21.4993 5.78105 21.0516 5.33333 20.4993 5.33333ZM13.4993 13C13.4993 12.4477 13.0516 12 12.4993 12H6.49934C5.94708 12 5.49934 12.4477 5.49934 13C5.49934 13.5523 5.94708 14 6.49934 14H12.4993C13.0516 14 13.4993 13.5523 13.4993 13ZM21.4998 9.33333C24.4458 9.33333 26.834 11.7215 26.834 14.6675C26.834 17.6135 24.4458 20.0017 21.4998 20.0017C18.5538 20.0017 16.1656 17.6135 16.1656 14.6675C16.1656 11.7215 18.5538 9.33333 21.4998 9.33333ZM17.4983 20.0013C18.6129 20.8388 19.9984 21.3351 21.4998 21.3351C23 21.3351 24.3845 20.8396 25.4986 20.0033L25.4992 24.3316C25.4992 25.0927 24.6932 25.5575 24.0458 25.2235L23.9265 25.1513L21.4993 23.4549L19.0731 25.1513C18.4493 25.5872 17.6066 25.1928 17.5096 24.4707L17.5004 24.3316L17.4983 20.0013Z" fill="#212121"/>
</svg>
